<?xml version="1.0" encoding="utf-8"?>
<!-- Generator: Adobe Illustrator 26.3.1, SVG Export Plug-In . SVG Version: 6.00 Build 0)  -->
<svg version="1.1" id="Layer_1" xmlns="http://www.w3.org/2000/svg" xmlns:xlink="http://www.w3.org/1999/xlink" x="0px" y="0px"
	 viewBox="0 0 612 792" style="enable-background:new 0 0 612 792;" xml:space="preserve">
<style type="text/css">
	.st0{fill:#330066;}
</style>
<g>
	<path class="st0" d="M-309.48,248.56c6.09,17.55,14.18,33.68,23.28,49.29c8.12,13.92,16.69,27.58,24.96,41.41
		c10.74,17.97,9.63,36.69,3.45,55.75c-4.91,15.13-13.87,27.7-23.65,40.03c-9.58,12.08-18.13,24.99-26.76,37.79
		c-4.7,6.97-9.18,14.09-17.41,17.14c-4.3,1.6-9.05,1.99-14.35,3.09c-7.69,8.43-16.35,17.92-25.79,28.26
		c9.18,22.21,19.01,46.01,28.89,69.91c-8.1,3.63-15.49,6.94-23.06,10.32c-3.97-9.3-7.89-18.48-11.81-27.67
		c-0.62-0.07-1.25-0.14-1.87-0.2c-7.66,25.35-24.58,39.75-50.99,44.19c16.99-25.27,18.2-53.39,18.58-82.33
		c-6.83,0.77-13.43,1.82-20.07,2.22c-27.12,1.62-51.33-5.12-70.55-25.45c-8.65-9.15-15.3-19.63-19.99-31.34
		c-0.54-1.34-1.01-2.7-1.89-5.04c12.56,11.88,25.5,21.35,40.19,28.26c12,5.64,24.65,8.53,37.9,9.26c17.75,0.98,34.99-1.04,51.4-8.11
		c10.64-4.58,19.11-11.78,25.04-22.35c-3.06-1.93-5.85-3.68-8.63-5.45c-5.14-3.29-10.02-2.54-14.89,0.72
		c-17.14,11.46-36.09,15.31-56.45,13.63c-32.81-2.71-57.87-18.77-77.18-44.67c-6.71-9-9.79-19.53-11.05-30.54
		c-0.71-6.24,2.12-10.08,7.72-11.7c4.77-1.38,7.9,0.2,11.2,5.89c1.07,1.85,2.03,3.83,2.65,5.87c9.49,31.68,45.36,53.09,74.48,52.77
		c13.35-0.15,25.7-2.98,36.83-10.27c11.63-7.61,15.15-19.65,16.62-32.54c0.11-1-1.39-2.42-2.44-3.28
		c-7.58-6.21-15.38-12.17-22.84-18.54c-5.59-4.77-9.13-11.09-10.25-18.34c-2.08-13.43,2.9-22.34,16.27-26.35
		c18.11-5.43,36.75-6.33,54.97-0.51c5.43,1.73,10.31,5.89,14.8,9.7c5.35,4.54,5.93,10.78,4.1,17.38
		c-4.11,14.84-14.67,24.23-27.22,31.62c-4.35,2.56-6.11,5.09-6.34,10.29c-0.31,7.04-2.49,13.97-3.46,21.01
		c-0.26,1.9,0.31,4.93,1.62,5.86c6.18,4.38,12.44,8.88,19.26,12.07c8.04,3.76,16.28,0.29,20.71-7.58
		c7.03-12.5,10.5-26.15,12.08-40.25c1.33-11.89,2.1-23.81-0.88-35.65c-3.4-13.49-10.58-24.27-22.32-31.79
		c-16.82-10.77-32.03-23.2-43.26-40.02c-8.32-12.46-8.34-25.23-1.72-38.19c5.09-9.97,13.26-11.79,22.75-5.86
		c13.88,8.66,17.93,30.12,14.24,41.67c-0.78,2.44-3.29,4.33-5.77,7.44c4.39,3.92,9.11,8.14,14.15,12.64
		c5.63-7.38,6.69-15.1,7.09-23.1c0.92-18.5-2.21-36.34-8.38-53.72c-1.14-3.21-2.4-5.33-6.83-5.51c-17.75-0.71-35.49-1.93-53.2-3.35
		c-23.5-1.89-46.97-4.19-70.46-6.23c-15.54-1.35-31.07-2.86-46.64-3.73c-18.43-1.03-36.89-1.45-55.33-2.13
		c-1.28-0.05-2.57-0.01-3.98-0.01c-3.54,21.37-6.86,42.43-5.06,63.64c1.03,12.09,4.76,23.97,7.4,35.92
		c4.67,21.18,10.7,42.15,13.81,63.56c3.15,21.63,1.82,43.5-8.01,63.82c-2.37,4.9-5.84,9.25-8.49,14.03
		c-0.79,1.43-1.18,3.74-0.6,5.18c9.72,23.9,24,44.72,42.65,62.54c3.14,3,6.28,6.01,8.98,9.53c-27.5-2.76-49.11-16.97-69.43-34.55
		c-2.05,6.6-2.87,12.22-0.35,18.64c6.93,17.62,16.77,33.27,30.32,46.34c11.35,10.95,23.43,21.14,35.19,31.66
		c0.7,0.63,1.42,1.25,3.15,2.76c-61.49-5.39-117.5-21.84-166.58-60.32c23.39-23.7,45.1-48.07,58.33-79.38
		c-12.6-5.94-22.52-15.66-30.43-27.68c-4.66-7.08-9.78-13.86-14.89-20.62c-9.21-12.2-18.84-24.1-27.81-36.48
		c-17.03-23.49-18.46-47.97-3.49-73.07c4.32-7.24,8.86-14.34,13.47-21.78c-7.9-3.99-16.47-7.63-24.28-12.49
		c-6.56-4.08-12.76-9.06-18.17-14.56c-8.29-8.43-8.5-17.56-2.01-27.55c5.86-9.01,14.09-15.46,22.89-21.25
		c20.32-13.36,42.93-20.72,66.73-24.55c3.46-0.56,4.47-1.96,5.04-4.74c2.75-13.33,5.09-26.77,8.34-39.97
		c7.32-29.72,16.71-58.64,32.56-85.2c12.4-20.77,31.55-29.32,54.25-32.41c17.13-2.33,33.07,2.88,49.19,7.41
		c7.13,2,14.49,4.21,21.77,4.3c6.41,0.08,12.87-2.57,19.27-4.16c11.56-2.87,22.95-6.67,34.66-8.58c19.16-3.13,34.62,4.87,46.33,19.5
		c15.45,19.3,24.59,41.98,32.87,65.05c9.41,26.22,19.48,52.22,25.19,79.62c0.24,1.16,2.45,2.44,3.92,2.72
		c21.89,4.15,43.39,9.68,63.93,18.39c5.77,2.45,11.36,5.61,16.48,9.22c6.77,4.76,6.18,10.86-1.6,13.09
		c-11.27,3.23-22.82,5.89-34.43,7.33c-11,1.36-22.23,0.83-33.36,1.14C-305.84,248.32-307.44,248.45-309.48,248.56z M-345.33,210.11
		c-0.07-1.68,0.05-2.72-0.19-3.66c-2.92-11.56-6.08-23.07-8.76-34.69c-0.93-4.04-3.21-5.43-6.84-6.55
		c-23.92-7.37-48.58-8.9-73.34-9.32c-14.81-0.25-29.66-0.15-44.45,0.61c-17.23,0.88-34.58,1.64-51.59,4.28
		c-26.34,4.09-52.44,9.69-78.62,14.77c-1.56,0.3-3.87,1.35-4.21,2.52c-1.39,4.82-2.15,9.81-3.24,15.26
		c10.33,0,19.78-0.13,29.22,0.04c8.63,0.15,17.25,0.56,25.88,0.95c22.05,1,44.11,1.96,66.16,3.12c9.61,0.51,19.2,1.35,28.78,2.27
		c18.8,1.82,37.59,3.84,56.39,5.69c10.06,0.99,20.13,1.92,30.21,2.65C-368.56,208.86-357.16,209.41-345.33,210.11z M-443.26,59.87
		c0,0.7,0,1.39,0.01,2.09c17.11,7.09,32.64,16.7,47.13,30.53c-0.34-3.47,0.03-5.54-0.78-6.92c-4.17-7.08-8.64-13.99-13.03-20.94
		c-3.03-4.8-8-7-13.09-7.03C-429.76,57.55-436.51,59.04-443.26,59.87z M-352.13,292.07c-1.9-3.44-3.22-6.19-4.95-8.64
		c-0.34-0.48-3.19-0.12-3.34,0.35c-0.89,2.7-1.31,5.55-1.88,8.35c-0.03,0.15-0.03,0.38,0.06,0.49c1.56,1.92,3.13,3.83,4.71,5.74
		C-355.86,296.41-354.18,294.45-352.13,292.07z"/>
	<path class="st0" d="M-798,691.49c0,27.31,0,53.81,0,80.51c-7.95,0-15.89,0-24.8,0c0.56-39.27,1.13-78.54,1.7-118.25
		c8.01,0,15.47-0.2,22.9,0.17c1.47,0.07,3.19,2.08,4.19,3.6c15.87,24.04,31.65,48.15,47.45,72.24c0.7,1.07,1.46,2.11,2.76,3.99
		c-0.62-27.12-1.22-53.29-1.83-79.74c8.67,0,16.44,0,24.63,0c0,39.18,0,78.47,0,118.2c-7.72,0-15.34,0.15-22.95-0.14
		c-1.36-0.05-3.05-1.67-3.92-3.01c-16.41-25.28-32.71-50.63-49.04-75.96C-797.16,692.69-797.44,692.31-798,691.49z"/>
	<path class="st0" d="M-301,771c0-22.34,0-44.33,0-67c-4.82,0-9.23,0-14,0c0-5.81,0-17,0-17h12.32c1.38-8.15,1.71-15.72,4.11-22.56
		c3.7-10.54,11.59-16.81,23.29-17.07c6.11-0.14,12.23-0.02,18.83-0.02c-0.45,6.28-0.82,11.47-1.19,16.66
		c-19.74,0.26-20.35,23-20.35,23h35.93c0,0,1.31-13.26,2.78-19.3c3.38-13.96,13.11-21.33,27.44-21.28
		c3.97,0.01,7.94,0.62,11.91,0.69c3.45,0.06,4.08,1.97,3.98,4.86c-0.13,3.63-0.03,7.27-0.03,11.28c-6.78,0.1-14.12-1.08-17.55,5.23
		c-2.77,5.1-5.1,18.52-5.1,18.52s15.49,0,22.64,0c0,5.9,0,11.26,0,17c-6.96,0-13.76,0-21,0c0,22.41,0,44.46,0,67
		c-7.75,0-15.07,0-23,0c0-22.19,0-44.48,0-67c-12.73,0-25.54,0-38,0c0,22.36,0,44.51,0,67C-285.7,771-292.97,771-301,771z"/>
	<path class="st0" d="M-469.36,678.93c-9.3-2.09-18.08-4.53-27.03-5.9c-4.94-0.76-10.35-0.48-15.22,0.68
		c-8.58,2.06-10.97,11.36-4.34,17.36c3.94,3.57,9.12,5.87,13.95,8.34c8.24,4.22,17.14,7.35,24.88,12.32
		c12.56,8.08,17.21,21.56,13.49,36.1c-3.63,14.22-14.08,21.58-27.51,24.36c-16.29,3.37-32.58,1.73-48.61-2.73
		c-3.38-0.94-5.07-2.26-4.66-6.09c0.68-6.25,0.92-12.55,1.34-18.83c8.06,2.34,16.01,5.2,24.21,6.85c5.86,1.18,12.07,1.24,18.08,0.92
		c6.48-0.34,11.49-4.85,12.37-9.84c1.06-5.99-1.29-10.72-8.12-13.86c-8.12-3.73-16.7-6.46-24.86-10.12
		c-19.75-8.86-27.13-25.73-21.11-45.2c3.76-12.17,13.47-18.29,25.37-20.63c15.32-3.02,30.39-0.88,45.09,4.02
		c1.1,0.37,2.51,1.91,2.55,2.95C-469.24,666.09-469.36,672.55-469.36,678.93z"/>
	<path class="st0" d="M-629,751.19c0,4.8,0,10.27,0,16.14c-12.43,4.8-25.25,6.38-38.47,5.36c-24.58-1.9-35.29-19.18-36.41-40.82
		c-0.58-11.15,0.81-21.85,6.97-31.54c8.99-14.15,22.47-18.64,38.23-17.17c25.41,2.38,35.57,24.17,33.81,44.45
		c-0.14,1.62-0.21,3.25-0.34,5.38c-18.66,0-37.07,0-55.48,0c0.41,13.26,9.48,20.81,22.91,20.81
		C-648.29,753.81-638.81,752.14-629,751.19z M-647.78,718c-0.86-12.84-9.95-16.61-18.33-15.82c-8.25,0.77-14.56,7.37-14.74,15.82
		C-669.91,718-658.98,718-647.78,718z"/>
	<path class="st0" d="M-393.91,771c0-6.6-0.01-13.38,0-20.15c0.02-11.96,0.39-23.93-0.05-35.87c-0.27-7.16-4.15-11.05-11.22-10.52
		c-6.24,0.47-12.38,2.92-18.44,4.86c-0.99,0.32-1.93,2.57-1.94,3.93c-0.07,17.77,0.03,35.54,0.08,53.31c0,1.47,0,2.94,0,5.43H-449
		c0,0,0-56.78,0-85c7.06,0,14.4,0,22.32,0c-0.21,2.9-0.41,5.6-0.64,8.74c3.36-2.35,6.25-4.76,9.48-6.57
		c11.58-6.5,23.6-6.17,35.04-0.28c7.72,3.98,11.49,11.92,11.72,20.22c0.59,20.52,0.19,41.07,0.19,61.89H-393.91z"/>
	<path class="st0" d="M-118.03,771.58c-6.27,0-12.72,0.12-19.16-0.13c-0.96-0.04-2.27-1.62-2.67-2.75c-0.52-1.5-0.31-3.26-0.4-4.73
		c-5.79,2.76-11.28,6.22-17.26,8.04c-9.32,2.84-18.87,2.65-27.08-3.5c-8.41-6.29-9.96-15.52-8.37-25.1
		c1.61-9.71,8.18-15.68,17.3-18.86c11.52-4.03,23.36-4.01,35.26-2.38c1.54-10.9-4.17-18.22-14.63-17.68
		c-9.66,0.5-19.25,2.25-29.32,3.5c0-1.35,0.14-3.79-0.02-6.21c-0.82-12.4-0.91-12.79,11.3-14.9c11.9-2.05,24-3.61,35.91,0.2
		c11.28,3.6,18.24,12.43,18.66,24.31c0.47,13.3,0.36,26.61,0.46,39.92C-117.98,757.91-118.03,764.49-118.03,771.58z M-140.49,734.43
		c-5.53,0-10.51-0.37-15.41,0.13c-3.51,0.36-7.21,1.32-10.27,3.02c-6.4,3.55-6,12.83,0.57,16.13c6.95,3.49,13.3,0.88,19.84-2.07
		c5.83-2.64,5.22-7.31,5.26-12.06C-140.48,738.11-140.49,736.64-140.49,734.43z"/>
	<path class="st0" d="M-580.45,704c0,12.69-0.31,25.15,0.11,37.6c0.26,7.6,3.73,10.51,11.39,10.89c4.29,0.21,13.95,0.04,13.95,0.04
		v18.8c0,0-23.48,2.58-34.69-1.74c-8.71-3.36-13.08-10.23-13.58-19.09c-0.76-13.43-0.73-26.9-1.02-40.36
		c-0.04-1.96-0.01-3.92-0.01-6.13H-618v-18h13v-20.24c8.7-0.49,16.26-0.95,24-1.44V687h27v17H-580.45z"/>
	<path class="st0" d="M-497.96,265.32c16.05-0.04,29.49,13.63,29.59,30.09c0.1,17.3-11.42,30.99-26.18,31.1
		c-18.66,0.14-30.96-12.05-30.95-30.65C-525.49,277.69-514.37,265.36-497.96,265.32z M-498.44,292.37
		c-0.04,6.75,3.54,11.13,9.18,11.2c4.64,0.06,7.12-2.99,7.12-8.72c0-5.93-4.12-11.03-9.04-11.18
		C-495.6,283.53-498.41,286.89-498.44,292.37z"/>
	<path class="st0" d="M-351,687c7.61,0,14.94,0,23,0c0,28.01,0,55.84,0,84c-7.27,0-14.88,0-23,0C-351,743.1-351,715.23-351,687z"/>
	<path class="st0" d="M-338.79,673.43c-7.94,0.08-12.73-3.99-12.73-10.8c0-7.56,4.71-12.12,12.67-12.24
		c7.41-0.12,12.47,4.69,12.51,11.89C-326.3,669.12-331.03,673.36-338.79,673.43z"/>
</g>
</svg>
